Coordinates
version=1
nRows=14
nColumns=40
inDegrees=yes

Units are S.I. units (second, meters, Newtons, ...)
Angles are in degrees.

endheader
time	pelvis_tilt	pelvis_list	pelvis_rotation	pelvis_tx	pelvis_ty	pelvis_tz	hip_flexion_r	hip_adduction_r	hip_rotation_r	knee_angle_r	knee_angle_r_beta	ankle_angle_r	subtalar_angle_r	mtp_angle_r	hip_flexion_l	hip_adduction_l	hip_rotation_l	knee_angle_l	knee_angle_l_beta	ankle_angle_l	subtalar_angle_l	mtp_angle_l	lumbar_extension	lumbar_bending	lumbar_rotation	arm_flex_r	arm_add_r	arm_rot_r	elbow_flex_r	pro_sup_r	wrist_flex_r	wrist_dev_r	arm_flex_l	arm_add_l	arm_rot_l	elbow_flex_l	pro_sup_l	wrist_flex_l	wrist_dev_l
     47.30000000	     -3.77087509	     -4.27885495	      0.63607014	      1.07119980	      0.91692730	      0.44722857	     24.82757108	      0.63328564	    -12.59648316	     22.43778656	     22.43778656	      3.34204041	     -9.19744296	     -3.70512148	      3.38868893	    -10.65071340	     -6.70226247	     37.19874480	     37.19874480	     13.18844200	    -12.74587987	    -10.73532088	    -11.07583417	      5.55826326	      2.01998383	     -9.84787140	    -11.87800359	     -6.17064816	     27.57254601	     46.38848804	      0.00000000	      0.00000000	     12.61381126	    -16.31559934	     -6.70883203	     99.38282970	     48.15406803	      0.00000000	      0.00000000
     47.31171429	     -3.97485056	     -4.37906248	      0.96018444	      1.07039106	      0.91783718	      0.44961253	     24.28977491	      0.72750225	    -13.40039383	     22.10957495	     22.10957495	      3.86572683	     -8.27998926	     -4.37353301	      5.86246678	    -11.03329423	     -5.39052669	     41.47926911	     41.47926911	     10.79361514	    -15.28542875	    -10.55261189	    -11.02133999	      5.69881308	      2.02958880	     -8.39632426	    -11.97804293	     -5.56052972	     28.08860937	     46.33023932	      0.00000000	      0.00000000	     11.31363719	    -15.93901590	     -6.73675331	     98.13969786	     48.14031958	      0.00000000	      0.00000000
     47.32342857	     -4.12579985	     -4.62420858	      1.25026509	      1.06940775	      0.91864643	      0.45213115	     23.64194325	      1.02406858	    -14.20663473	     21.63616715	     21.63616715	      4.28718137	     -7.37507694	     -5.00941948	      8.49780242	    -11.65867763	     -4.35833232	     45.99651997	     45.99651997	      9.08264081	    -16.68161123	     -9.08630600	    -11.06392408	      5.95935954	      2.15699238	     -6.88062163	    -12.18411510	     -4.83645628	     28.84946967	     46.25422046	      0.00000000	      0.00000000	     10.08999455	    -15.47763425	     -6.62160069	     96.88766584	     48.11852760	      0.00000000	      0.00000000
     47.33514286	     -4.23442906	     -5.00507990	      1.51088078	      1.06823374	      0.91935714	      0.45477572	     22.95138797	      1.55237773	    -14.83227288	     21.09809584	     21.09809584	      4.67625426	     -6.82363961	     -5.25720099	     11.17673105	    -12.46248331	     -3.46411094	     50.36166472	     50.36166472	      7.34060058	    -17.59782976	     -8.13970882	    -11.23232001	      6.32748850	      2.60286236	     -5.36749740	    -12.39302069	     -4.64143547	     29.53467560	     46.22345777	      0.00000000	      0.00000000	      8.95410211	    -14.91908418	     -6.24895509	     96.01407385	     48.07597220	      0.00000000	      0.00000000
     47.34685714	     -4.39847249	     -5.09457161	      1.78063296	      1.06683253	      0.92005014	      0.45694910	     22.33557191	      1.64556755	    -15.73281588	     20.59868970	     20.59868970	      4.87639501	     -5.58445622	     -6.24546689	     14.24008002	    -12.57485457	     -2.18222718	     55.11954001	     55.11954001	      8.82534493	    -17.31940147	      0.96629296	    -11.28439286	      6.41746189	      2.82610541	     -4.18220032	    -13.00855119	     -2.38425129	     31.33692776	     45.99346331	      0.00000000	      0.00000000	      7.91401596	    -14.38553634	     -6.18892870	     93.96246498	     48.07026732	      0.00000000	      0.00000000
     47.35857143	     -4.42052006	     -5.39779485	      2.00170620	      1.06542185	      0.92073329	      0.45951498	     21.62962986	      2.11172877	    -16.22660417	     20.15394852	     20.15394852	      5.21760792	     -5.05927893	     -6.38593275	     16.81409389	    -13.15047105	     -1.38101268	     58.75931561	     58.75931561	      7.40559436	    -17.93499485	      1.46108885	    -11.56235457	      6.64035348	      3.21383376	     -2.45286170	    -13.30212158	     -2.32242361	     32.11218755	     45.97142690	      0.00000000	      0.00000000	      6.68858647	    -13.92086760	     -5.78821670	     92.87203649	     48.02030476	      0.00000000	      0.00000000
     47.37028571	     -4.54462291	     -5.56083955	      2.25188429	      1.06384629	      0.92138161	      0.46168587	     20.98330000	      2.30587787	    -17.15945534	     19.65418876	     19.65418876	      5.57592571	     -3.65966739	     -6.76047813	     19.70299129	    -13.31730596	     -0.39140605	     62.41391724	     62.41391724	      8.33121774	    -17.79383681	      7.42489914	    -11.63415683	      6.79156054	      3.45831345	     -1.03732640	    -13.90823446	     -0.88515481	     33.81397213	     45.82000425	      0.00000000	      0.00000000	      5.81796178	    -13.35307545	     -5.78640842	     90.09955559	     47.99660409	      0.00000000	      0.00000000
     47.38200000	     -4.57547771	     -5.77329073	      2.47827717	      1.06222613	      0.92210107	      0.46398118	     20.27078231	      2.64886585	    -17.77146087	     19.15426256	     19.15426256	      5.91868395	     -2.78596354	     -6.79019973	     22.29953563	    -13.61820035	      0.35321038	     65.30018299	     65.30018299	      8.19435908	    -17.92297514	      9.32461361	    -11.91351800	      6.93444307	      3.70954711	      0.73771528	    -14.38917753	     -0.05069728	     35.08331665	     45.73624949	      0.00000000	      0.00000000	      4.65453779	    -12.95178622	     -5.57641407	     88.00924622	     47.96905032	      0.00000000	      0.00000000
     47.39371429	     -4.55448997	     -5.98110204	      2.67969973	      1.06060782	      0.92289782	      0.46622717	     19.49112485	      3.00190639	    -18.38535784	     18.63345140	     18.63345140	      6.22973809	     -1.85212090	     -6.88985571	     24.71333463	    -13.93755293	      0.91083720	     67.57651967	     67.57651967	      7.83178615	    -18.05246186	      9.63827940	    -12.21057827	      7.07501436	      3.87909726	      2.74447578	    -14.68016269	     -0.00124360	     35.99068273	     45.71405400	      0.00000000	      0.00000000	      3.46819612	    -12.52456709	     -5.50207380	     85.77979552	     47.92259120	      0.00000000	      0.00000000
     47.40542857	     -4.59415516	     -6.16629713	      2.85680454	      1.05888731	      0.92369263	      0.46840449	     18.76918730	      3.36327934	    -18.89307939	     18.05711354	     18.05711354	      6.47088948	     -1.10915974	     -6.89085104	     27.11424731	    -14.21670077	      1.33846325	     69.30839367	     69.30839367	      7.65410660	    -18.07935061	      9.75315643	    -12.46122619	      7.16510581	      4.09000826	      4.80386597	    -14.96478300	     -0.03300563	     36.88437693	     45.69659356	      0.00000000	      0.00000000	      2.24427456	    -12.14161096	     -5.35931642	     83.71219436	     47.87009302	      0.00000000	      0.00000000
     47.41714286	     -4.56432571	     -6.27536581	      3.02978634	      1.05723479	      0.92465680	      0.47034798	     17.93375276	      3.62416768	    -19.48049783	     17.44621882	     17.44621882	      6.77845968	     -0.02491083	     -6.88186334	     29.30016235	    -14.36595167	      1.66177156	     70.45775080	     70.45775080	      7.72302893	    -18.02581135	      9.97289411	    -12.77512007	      7.19314988	      4.26651157	      6.96251533	    -15.22418674	      0.05594362	     37.75446474	     45.67434716	      0.00000000	      0.00000000	      1.26076350	    -11.59412278	     -5.52175088	     80.69143890	     47.82433649	      0.00000000	      0.00000000
     47.42885714	     -4.56976030	     -6.36370832	      3.15958027	      1.05548917	      0.92560888	      0.47215681	     17.15673872	      3.87011053	    -20.02588060	     16.85501335	     16.85501335	      7.07187579	      1.04354574	     -6.75203312	     31.38321458	    -14.48059557	      1.83691393	     71.03778310	     71.03778310	      7.91246074	    -17.95865507	     10.04930987	    -13.04313559	      7.19589411	      4.53950705	      9.14084163	    -15.54750154	      0.23842421	     38.54763203	     45.65079129	      0.00000000	      0.00000000	      0.43206866	    -10.93848059	     -5.78232357	     77.46762969	     47.78221059	      0.00000000	      0.00000000
     47.44057143	     -4.66433983	     -6.48990173	      3.31565829	      1.05370262	      0.92632998	      0.47382940	     16.45195676	      4.20170643	    -20.36727643	     16.17432179	     16.17432179	      7.33615152	      1.69201726	     -6.66257378	     33.46116438	    -14.60854701	      1.97095346	     71.07083218	     71.07083218	      8.03239378	    -17.86054681	      9.90501073	    -13.18824510	      7.24248442	      4.57695935	     11.40503282	    -15.70317557	      0.19891193	     39.54222826	     45.63077252	      0.00000000	      0.00000000	     -0.91511021	    -10.65681481	     -5.62784197	     75.26149627	     47.72368940	      0.00000000	      0.00000000
     47.45228571	     -4.66363534	     -6.48528260	      3.40592668	      1.05203512	      0.92733236	      0.47530951	     15.60939584	      4.37249975	    -20.83961917	     15.48541399	     15.48541399	      7.61750185	      2.77285775	     -6.53859846	     35.13604048	    -14.62632338	      1.85831451	     70.43509545	     70.43509545	      8.10319808	    -17.79517384	      9.73116246	    -13.42920054	      7.16632470	      4.72825122	     13.77727457	    -15.93945478	      0.43638635	     40.36346304	     45.60446890	      0.00000000	      0.00000000	     -1.68046151	    -10.05523580	     -5.96336020	     71.64213302	     47.67749265	      0.00000000	      0.00000000
